<svg width="28" height="28" viewBox="0 0 28 28" fill="none" xmlns="http://www.w3.org/2000/svg">
<path d="M2.75001 27.5C2.30507 27.4999 1.87015 27.3679 1.50023 27.1206C1.13031 26.8734 0.841991 26.522 0.671734 26.111C0.501476 25.6999 0.456919 25.2476 0.543696 24.8112C0.630473 24.3748 0.844688 23.9739 1.15926 23.6592L23.6593 1.15924C24.0825 0.743644 24.6527 0.511985 25.2458 0.514672C25.8389 0.517358 26.407 0.754171 26.8264 1.17359C27.2458 1.593 27.4826 2.16108 27.4853 2.75421C27.488 3.34735 27.2564 3.91755 26.8408 4.34074L4.34076 26.8407C4.13212 27.05 3.88417 27.216 3.61118 27.3291C3.33818 27.4423 3.04552 27.5003 2.75001 27.5Z" fill="#FF5757"/>
<path d="M25.25 27.5C24.9545 27.5003 24.6618 27.4423 24.3888 27.3291C24.1158 27.216 23.8679 27.05 23.6593 26.8407L1.15926 4.34074C0.743659 3.91755 0.512001 3.34735 0.514687 2.75421C0.517373 2.16108 0.754186 1.593 1.1736 1.17359C1.59302 0.754171 2.16109 0.517358 2.75423 0.514672C3.34736 0.511985 3.91756 0.743644 4.34076 1.15924L26.8408 23.6592C27.1553 23.9739 27.3695 24.3748 27.4563 24.8112C27.5431 25.2476 27.4985 25.6999 27.3283 26.111C27.158 26.522 26.8697 26.8734 26.4998 27.1206C26.1299 27.3679 25.6949 27.4999 25.25 27.5Z" fill="#FF5757"/>
</svg>
