<svg width="40" height="40" viewBox="0 0 40 40" fill="none" xmlns="http://www.w3.org/2000/svg">
<path d="M37.5 9.16659C37.942 9.16659 38.3659 8.99099 38.6785 8.67843C38.9911 8.36587 39.1666 7.94195 39.1666 7.49992V2.49992C39.1666 2.05789 38.9911 1.63397 38.6785 1.32141C38.3659 1.00885 37.942 0.833252 37.5 0.833252H32.5C32.058 0.833252 31.634 1.00885 31.3215 1.32141C31.0089 1.63397 30.8333 2.05789 30.8333 2.49992C30.8333 2.72093 30.7455 2.93289 30.5892 3.08917C30.433 3.24545 30.221 3.33325 30 3.33325C29.779 3.33325 29.567 3.24545 29.4107 3.08917C29.2544 2.93289 29.1666 2.72093 29.1666 2.49992C29.1666 2.05789 28.9911 1.63397 28.6785 1.32141C28.3659 1.00885 27.942 0.833252 27.5 0.833252H22.5C22.058 0.833252 21.634 1.00885 21.3215 1.32141C21.0089 1.63397 20.8333 2.05789 20.8333 2.49992C20.8333 2.72093 20.7455 2.93289 20.5892 3.08917C20.433 3.24545 20.221 3.33325 20 3.33325C19.779 3.33325 19.567 3.24545 19.4107 3.08917C19.2544 2.93289 19.1666 2.72093 19.1666 2.49992C19.1666 2.05789 18.9911 1.63397 18.6785 1.32141C18.3659 1.00885 17.942 0.833252 17.5 0.833252H12.5C12.058 0.833252 11.634 1.00885 11.3215 1.32141C11.0089 1.63397 10.8333 2.05789 10.8333 2.49992C10.8333 2.72093 10.7455 2.93289 10.5892 3.08917C10.433 3.24545 10.221 3.33325 9.99998 3.33325C9.77897 3.33325 9.56701 3.24545 9.41072 3.08917C9.25444 2.93289 9.16665 2.72093 9.16665 2.49992C9.16665 2.05789 8.99105 1.63397 8.67849 1.32141C8.36593 1.00885 7.94201 0.833252 7.49998 0.833252H2.49998C2.05795 0.833252 1.63403 1.00885 1.32147 1.32141C1.00891 1.63397 0.833313 2.05789 0.833313 2.49992V7.49992C0.833313 7.94195 1.00891 8.36587 1.32147 8.67843C1.63403 8.99099 2.05795 9.16659 2.49998 9.16659C2.72099 9.16659 2.93296 9.25438 3.08924 9.41066C3.24552 9.56694 3.33331 9.7789 3.33331 9.99992C3.33331 10.2209 3.24552 10.4329 3.08924 10.5892C2.93296 10.7455 2.72099 10.8333 2.49998 10.8333C2.05795 10.8333 1.63403 11.0088 1.32147 11.3214C1.00891 11.634 0.833313 12.0579 0.833313 12.4999V17.4999C0.833313 17.9419 1.00891 18.3659 1.32147 18.6784C1.63403 18.991 2.05795 19.1666 2.49998 19.1666C2.72099 19.1666 2.93296 19.2544 3.08924 19.4107C3.24552 19.5669 3.33331 19.7789 3.33331 19.9999C3.33331 20.2209 3.24552 20.4329 3.08924 20.5892C2.93296 20.7455 2.72099 20.8333 2.49998 20.8333C2.05795 20.8333 1.63403 21.0088 1.32147 21.3214C1.00891 21.634 0.833313 22.0579 0.833313 22.4999V27.4999C0.833313 27.9419 1.00891 28.3659 1.32147 28.6784C1.63403 28.991 2.05795 29.1666 2.49998 29.1666C2.72099 29.1666 2.93296 29.2544 3.08924 29.4107C3.24552 29.5669 3.33331 29.7789 3.33331 29.9999C3.33331 30.2209 3.24552 30.4329 3.08924 30.5892C2.93296 30.7455 2.72099 30.8333 2.49998 30.8333C2.05795 30.8333 1.63403 31.0088 1.32147 31.3214C1.00891 31.634 0.833313 32.0579 0.833313 32.4999V37.4999C0.833313 37.9419 1.00891 38.3659 1.32147 38.6784C1.63403 38.991 2.05795 39.1666 2.49998 39.1666H7.49998C7.94201 39.1666 8.36593 38.991 8.67849 38.6784C8.99105 38.3659 9.16665 37.9419 9.16665 37.4999C9.16665 37.2789 9.25444 37.0669 9.41072 36.9107C9.56701 36.7544 9.77897 36.6666 9.99998 36.6666C10.221 36.6666 10.433 36.7544 10.5892 36.9107C10.7455 37.0669 10.8333 37.2789 10.8333 37.4999C10.8333 37.9419 11.0089 38.3659 11.3215 38.6784C11.634 38.991 12.058 39.1666 12.5 39.1666H17.5C17.942 39.1666 18.3659 38.991 18.6785 38.6784C18.9911 38.3659 19.1666 37.9419 19.1666 37.4999C19.1666 37.2789 19.2544 37.0669 19.4107 36.9107C19.567 36.7544 19.779 36.6666 20 36.6666C20.221 36.6666 20.433 36.7544 20.5892 36.9107C20.7455 37.0669 20.8333 37.2789 20.8333 37.4999C20.8333 37.9419 21.0089 38.3659 21.3215 38.6784C21.634 38.991 22.058 39.1666 22.5 39.1666H27.5C27.942 39.1666 28.3659 38.991 28.6785 38.6784C28.9911 38.3659 29.1666 37.9419 29.1666 37.4999C29.1666 37.2789 29.2544 37.0669 29.4107 36.9107C29.567 36.7544 29.779 36.6666 30 36.6666C30.221 36.6666 30.433 36.7544 30.5892 36.9107C30.7455 37.0669 30.8333 37.2789 30.8333 37.4999C30.8333 37.9419 31.0089 38.3659 31.3215 38.6784C31.634 38.991 32.058 39.1666 32.5 39.1666H37.5C37.942 39.1666 38.3659 38.991 38.6785 38.6784C38.9911 38.3659 39.1666 37.9419 39.1666 37.4999V32.4999C39.1666 32.0579 38.9911 31.634 38.6785 31.3214C38.3659 31.0088 37.942 30.8333 37.5 30.8333C37.279 30.8333 37.067 30.7455 36.9107 30.5892C36.7544 30.4329 36.6666 30.2209 36.6666 29.9999C36.6666 29.7789 36.7544 29.5669 36.9107 29.4107C37.067 29.2544 37.279 29.1666 37.5 29.1666C37.942 29.1666 38.3659 28.991 38.6785 28.6784C38.9911 28.3659 39.1666 27.9419 39.1666 27.4999V22.4999C39.1666 22.0579 38.9911 21.634 38.6785 21.3214C38.3659 21.0088 37.942 20.8333 37.5 20.8333C37.279 20.8333 37.067 20.7455 36.9107 20.5892C36.7544 20.4329 36.6666 20.2209 36.6666 19.9999C36.6666 19.7789 36.7544 19.5669 36.9107 19.4107C37.067 19.2544 37.279 19.1666 37.5 19.1666C37.942 19.1666 38.3659 18.991 38.6785 18.6784C38.9911 18.3659 39.1666 17.9419 39.1666 17.4999V12.4999C39.1666 12.0579 38.9911 11.634 38.6785 11.3214C38.3659 11.0088 37.942 10.8333 37.5 10.8333C37.279 10.8333 37.067 10.7455 36.9107 10.5892C36.7544 10.4329 36.6666 10.2209 36.6666 9.99992C36.6666 9.7789 36.7544 9.56694 36.9107 9.41066C37.067 9.25438 37.279 9.16659 37.5 9.16659ZM35.8333 6.18325C35.0915 6.50814 34.4605 7.04215 34.0173 7.71998C33.5742 8.39782 33.3382 9.19009 33.3382 9.99992C33.3382 10.8097 33.5742 11.602 34.0173 12.2799C34.4605 12.9577 35.0915 13.4917 35.8333 13.8166V16.1833C35.0915 16.5081 34.4605 17.0422 34.0173 17.72C33.5742 18.3978 33.3382 19.1901 33.3382 19.9999C33.3382 20.8097 33.5742 21.602 34.0173 22.2799C34.4605 22.9577 35.0915 23.4917 35.8333 23.8166V26.1833C35.0915 26.5081 34.4605 27.0421 34.0173 27.72C33.5742 28.3978 33.3382 29.1901 33.3382 29.9999C33.3382 30.8097 33.5742 31.602 34.0173 32.2799C34.4605 32.9577 35.0915 33.4917 35.8333 33.8166V35.8333H33.8167C33.4918 35.0915 32.9578 34.4604 32.2799 34.0173C31.6021 33.5742 30.8098 33.3382 30 33.3382C29.1902 33.3382 28.3979 33.5742 27.72 34.0173C27.0422 34.4604 26.5082 35.0915 26.1833 35.8333H23.8166C23.4918 35.0915 22.9578 34.4604 22.2799 34.0173C21.6021 33.5742 20.8098 33.3382 20 33.3382C19.1902 33.3382 18.3979 33.5742 17.72 34.0173C17.0422 34.4604 16.5082 35.0915 16.1833 35.8333H13.8166C13.4918 35.0915 12.9578 34.4604 12.2799 34.0173C11.6021 33.5742 10.8098 33.3382 9.99998 33.3382C9.19015 33.3382 8.39788 33.5742 7.72004 34.0173C7.04221 34.4604 6.5082 35.0915 6.18331 35.8333H4.16665V33.8166C4.90845 33.4917 5.5395 32.9577 5.98262 32.2799C6.42574 31.602 6.66174 30.8097 6.66174 29.9999C6.66174 29.1901 6.42574 28.3978 5.98262 27.72C5.5395 27.0421 4.90845 26.5081 4.16665 26.1833V23.8166C4.90845 23.4917 5.5395 22.9577 5.98262 22.2799C6.42574 21.602 6.66174 20.8097 6.66174 19.9999C6.66174 19.1901 6.42574 18.3978 5.98262 17.72C5.5395 17.0422 4.90845 16.5081 4.16665 16.1833V13.8166C4.90845 13.4917 5.5395 12.9577 5.98262 12.2799C6.42574 11.602 6.66174 10.8097 6.66174 9.99992C6.66174 9.19009 6.42574 8.39782 5.98262 7.71998C5.5395 7.04215 4.90845 6.50814 4.16665 6.18325V4.16659H6.18331C6.5082 4.90839 7.04221 5.53944 7.72004 5.98256C8.39788 6.42568 9.19015 6.66168 9.99998 6.66168C10.8098 6.66168 11.6021 6.42568 12.2799 5.98256C12.9578 5.53944 13.4918 4.90839 13.8166 4.16659H16.1833C16.5082 4.90839 17.0422 5.53944 17.72 5.98256C18.3979 6.42568 19.1902 6.66168 20 6.66168C20.8098 6.66168 21.6021 6.42568 22.2799 5.98256C22.9578 5.53944 23.4918 4.90839 23.8166 4.16659H26.1833C26.5082 4.90839 27.0422 5.53944 27.72 5.98256C28.3979 6.42568 29.1902 6.66168 30 6.66168C30.8098 6.66168 31.6021 6.42568 32.2799 5.98256C32.9578 5.53944 33.4918 4.90839 33.8167 4.16659H35.8333V6.18325ZM20 8.33325C16.9058 8.33325 13.9383 9.56242 11.7504 11.7503C9.56248 13.9383 8.33331 16.9057 8.33331 19.9999C8.33331 23.0941 9.56248 26.0616 11.7504 28.2495C13.9383 30.4374 16.9058 31.6666 20 31.6666C22.049 31.671 24.0623 31.1303 25.8333 30.0999C26.0325 29.9957 26.2085 29.8523 26.3508 29.6783C26.4932 29.5043 26.5988 29.3034 26.6614 29.0875C26.7241 28.8716 26.7424 28.6453 26.7153 28.4221C26.6882 28.199 26.6162 27.9836 26.5037 27.789C26.3912 27.5944 26.2405 27.4246 26.0607 27.2897C25.8809 27.1549 25.6756 27.0578 25.4573 27.0043C25.239 26.9508 25.0121 26.9421 24.7903 26.9785C24.5685 27.015 24.3563 27.096 24.1666 27.2166C22.578 28.1338 20.731 28.5012 18.9122 28.2617C17.0935 28.0223 15.4045 27.1894 14.1074 25.8922C12.8102 24.5951 11.9774 22.9061 11.7379 21.0873C11.4985 19.2686 11.8659 17.4216 12.7832 15.8329C13.7004 14.2443 15.1162 13.0027 16.8111 12.3007C18.5059 11.5987 20.385 11.4755 22.157 11.9504C23.9289 12.4252 25.4947 13.4714 26.6114 14.9268C27.7281 16.3822 28.3334 18.1655 28.3333 19.9999V20.8333C28.3333 21.0149 28.2975 21.1948 28.228 21.3626C28.1585 21.5305 28.0566 21.683 27.9281 21.8114C27.7997 21.9399 27.6472 22.0418 27.4794 22.1113C27.3115 22.1808 27.1316 22.2166 26.95 22.2166C26.5815 22.2166 26.228 22.0714 25.9659 21.8124C25.7038 21.5535 25.5544 21.2017 25.55 20.8333V16.1166C25.5413 15.7751 25.4279 15.4445 25.2251 15.1695C25.0223 14.8946 24.7399 14.6886 24.4162 14.5795C24.0925 14.4704 23.743 14.4634 23.4152 14.5595C23.0874 14.6555 22.797 14.85 22.5833 15.1166C21.7913 14.6825 20.9032 14.4533 20 14.4499C18.528 14.4499 17.1164 15.0346 16.0755 16.0755C15.0347 17.1163 14.45 18.528 14.45 19.9999C14.45 21.4719 15.0347 22.8835 16.0755 23.9244C17.1164 24.9652 18.528 25.5499 20 25.5499C21.3318 25.5501 22.6178 25.0641 23.6166 24.1833C24.2793 24.8341 25.1188 25.2757 26.0306 25.4529C26.9424 25.63 27.8862 25.535 28.7444 25.1797C29.6026 24.8243 30.3372 24.2243 30.8569 23.4544C31.3765 22.6845 31.6581 21.7787 31.6666 20.8499V19.9999C31.6666 16.9057 30.4375 13.9383 28.2496 11.7503C26.0616 9.56242 23.0942 8.33325 20 8.33325ZM20 22.2166C19.5616 22.2166 19.133 22.0866 18.7685 21.843C18.4039 21.5994 18.1198 21.2532 17.952 20.8482C17.7843 20.4432 17.7404 19.9975 17.8259 19.5675C17.9114 19.1375 18.1226 18.7425 18.4326 18.4325C18.7426 18.1225 19.1375 17.9114 19.5675 17.8258C19.9975 17.7403 20.4432 17.7842 20.8483 17.952C21.2533 18.1198 21.5995 18.4039 21.8431 18.7684C22.0866 19.1329 22.2166 19.5615 22.2166 19.9999C22.2189 20.2916 22.163 20.5809 22.0524 20.8508C21.9418 21.1208 21.7786 21.366 21.5723 21.5723C21.3661 21.7786 21.1208 21.9418 20.8509 22.0524C20.5809 22.163 20.2917 22.2188 20 22.2166Z" fill="#5A58F5"/>
</svg>
