<svg width="184" height="184" viewBox="0 0 184 184" fill="none" xmlns="http://www.w3.org/2000/svg">
<path d="M156.167 0.333374H27.8334C20.5399 0.333374 13.5452 3.23069 8.38794 8.38794C3.23069 13.5452 0.333374 20.5399 0.333374 27.8334V156.167C0.333374 163.46 3.23069 170.455 8.38794 175.612C13.5452 180.769 20.5399 183.667 27.8334 183.667H156.167C157.674 183.646 159.177 183.492 160.658 183.208L163.408 182.567H164.508L167.9 181.283L169.092 180.642C170.008 180.092 171.017 179.633 171.933 178.992C173.157 178.091 174.321 177.111 175.417 176.058L176.058 175.233C176.958 174.321 177.786 173.341 178.533 172.3L179.358 171.108C179.999 170.088 180.551 169.014 181.008 167.9C181.26 167.46 181.475 167 181.65 166.525C182.108 165.425 182.383 164.233 182.75 163.042V161.667C183.27 159.876 183.577 158.03 183.667 156.167V27.8334C183.667 20.5399 180.769 13.5452 175.612 8.38794C170.455 3.23069 163.46 0.333374 156.167 0.333374ZM27.8334 165.333C25.4022 165.333 23.0706 164.368 21.3516 162.649C19.6325 160.929 18.6667 158.598 18.6667 156.167V116.658L48.825 86.4084C49.6772 85.5492 50.691 84.8673 51.8081 84.4019C52.9251 83.9365 54.1233 83.6969 55.3334 83.6969C56.5435 83.6969 57.7416 83.9365 58.8587 84.4019C59.9757 84.8673 60.9895 85.5492 61.8417 86.4084L140.675 165.333H27.8334ZM165.333 156.167C165.325 157.297 165.107 158.416 164.692 159.467C164.482 159.914 164.237 160.343 163.958 160.75C163.713 161.138 163.437 161.506 163.133 161.85L114.092 112.808L122.158 104.742C123.011 103.883 124.024 103.201 125.141 102.735C126.258 102.27 127.457 102.03 128.667 102.03C129.877 102.03 131.075 102.27 132.192 102.735C133.309 103.201 134.323 103.883 135.175 104.742L165.333 134.992V156.167ZM165.333 109.05L148.1 92C142.854 87.0225 135.898 84.2476 128.667 84.2476C121.435 84.2476 114.479 87.0225 109.233 92L101.167 100.067L74.7667 73.6667C69.5208 68.6891 62.5649 65.9143 55.3334 65.9143C48.1018 65.9143 41.1459 68.6891 35.9 73.6667L18.6667 90.7167V27.8334C18.6667 25.4022 19.6325 23.0706 21.3516 21.3516C23.0706 19.6325 25.4022 18.6667 27.8334 18.6667H156.167C158.598 18.6667 160.929 19.6325 162.649 21.3516C164.368 23.0706 165.333 25.4022 165.333 27.8334V109.05Z" fill="#6563FF"/>
</svg>
