<svg width="42" height="42" viewBox="0 0 42 42" fill="none" xmlns="http://www.w3.org/2000/svg">
<path d="M30.8062 19.5272L22.4735 11.1945C22.0818 10.8053 21.5521 10.5868 20.9999 10.5868C20.4477 10.5868 19.918 10.8053 19.5263 11.1945L11.1937 19.5272C10.8089 19.919 10.5944 20.447 10.5969 20.9962C10.5994 21.5454 10.8187 22.0714 11.207 22.4597C11.5953 22.8481 12.1213 23.0673 12.6705 23.0698C13.2197 23.0723 13.7477 22.8578 14.1396 22.473L18.9166 17.696V29.3334C18.9166 29.886 19.1361 30.4159 19.5268 30.8066C19.9175 31.1973 20.4474 31.4167 21 31.4167C21.5525 31.4167 22.0824 31.1973 22.4731 30.8066C22.8638 30.4159 23.0833 29.886 23.0833 29.3334V17.696L27.8604 22.4731C28.2519 22.8597 28.7804 23.0757 29.3306 23.074C29.8808 23.0722 30.408 22.8529 30.797 22.4638C31.1861 22.0748 31.4054 21.5476 31.4071 20.9974C31.4088 20.4472 31.1928 19.9187 30.8062 19.5272Z" fill="#6563FF"/>
<path d="M21 0.166748C16.8795 0.166748 12.8516 1.3886 9.42559 3.6778C5.99957 5.96699 3.3293 9.22071 1.75248 13.0275C0.175653 16.8343 -0.236917 21.0232 0.566942 25.0645C1.3708 29.1057 3.35498 32.8179 6.26858 35.7315C9.18217 38.6451 12.8943 40.6292 16.9356 41.4331C20.9769 42.237 25.1657 41.8244 28.9725 40.2476C32.7793 38.6707 36.0331 36.0005 38.3223 32.5745C40.6115 29.1484 41.8333 25.1205 41.8333 21.0001C41.8272 15.4766 39.6303 10.1812 35.7246 6.27548C31.8189 2.3698 26.5234 0.172891 21 0.166748ZM30.8062 22.473C30.6128 22.6665 30.3832 22.82 30.1305 22.9247C29.8777 23.0294 29.6068 23.0834 29.3332 23.0834C29.0597 23.0834 28.7888 23.0294 28.536 22.9247C28.2833 22.82 28.0538 22.6666 27.8604 22.4731L23.0833 17.696V29.3334C23.0833 29.886 22.8638 30.4159 22.4731 30.8066C22.0824 31.1973 21.5525 31.4167 21 31.4167C20.4474 31.4167 19.9175 31.1973 19.5268 30.8066C19.1361 30.4159 18.9166 29.886 18.9166 29.3334V17.696L14.1396 22.473C13.7477 22.8578 13.2197 23.0723 12.6705 23.0698C12.1213 23.0673 11.5953 22.8481 11.207 22.4597C10.8187 22.0714 10.5994 21.5454 10.5969 20.9962C10.5944 20.447 10.8089 19.919 11.1937 19.5272L19.5263 11.1945C19.918 10.8053 20.4477 10.5868 20.9999 10.5868C21.5521 10.5868 22.0818 10.8053 22.4735 11.1945L30.8062 19.5272C30.9997 19.7206 31.1532 19.9502 31.2579 20.2029C31.3626 20.4556 31.4165 20.7265 31.4165 21.0001C31.4165 21.2736 31.3626 21.5445 31.2579 21.7973C31.1532 22.05 30.9997 22.2796 30.8062 22.473Z" fill="#A2A1FF"/>
</svg>
