<svg width="42" height="42" viewBox="0 0 42 42" fill="none" xmlns="http://www.w3.org/2000/svg">
<path d="M36.5 23.0833C36.0417 23.0833 35.5625 22.9374 35.1042 22.8333C34.176 22.6287 33.2639 22.3572 32.375 22.0208C31.4085 21.6692 30.3462 21.6874 29.3923 22.072C28.4385 22.4566 27.6606 23.1804 27.2084 24.1041L26.75 25.0416C24.7209 23.9128 22.8562 22.5108 21.2084 20.8749C19.5725 19.227 18.1705 17.3624 17.0417 15.3333L17.9167 14.7499C18.8404 14.2977 19.5642 13.5198 19.9488 12.566C20.3334 11.6121 20.3516 10.5497 20 9.58326C19.6692 8.69247 19.3978 7.78076 19.1875 6.8541C19.0834 6.39576 19 5.9166 18.9375 5.43743C18.6845 3.96997 17.9159 2.64106 16.7701 1.69001C15.6242 0.738963 14.1765 0.22828 12.6875 0.249929H6.43753C5.53968 0.241498 4.65055 0.426623 3.83067 0.7927C3.0108 1.15878 2.27942 1.69721 1.68634 2.37135C1.09326 3.04549 0.652391 3.8395 0.393752 4.69933C0.135113 5.55917 0.0647755 6.46463 0.187527 7.35409C1.2974 16.082 5.28342 24.1913 11.516 30.4013C17.7485 36.6112 25.8723 40.5677 34.6042 41.6458H35.3959C36.9321 41.648 38.4154 41.0844 39.5625 40.0624C40.2216 39.4729 40.7481 38.7503 41.1072 37.9423C41.4664 37.1342 41.65 36.2592 41.6459 35.3749V29.1249C41.6203 27.6778 41.0934 26.2844 40.1549 25.1826C39.2164 24.0807 37.9246 23.3387 36.5 23.0833ZM37.5417 35.5833C37.5413 35.8791 37.478 36.1714 37.3558 36.4408C37.2337 36.7102 37.0556 36.9505 36.8334 37.1458C36.6013 37.3479 36.3291 37.4987 36.0348 37.5885C35.7404 37.6782 35.4304 37.7048 35.125 37.6666C27.3227 36.6662 20.0755 33.0968 14.5265 27.5214C8.97752 21.946 5.44255 14.6819 4.47919 6.87493C4.44604 6.56976 4.47509 6.26103 4.56461 5.96741C4.65413 5.67379 4.80226 5.40136 5.00003 5.1666C5.19526 4.94437 5.43557 4.76626 5.70498 4.64413C5.97439 4.522 6.26673 4.45864 6.56253 4.45826H12.8125C13.297 4.44748 13.7701 4.60593 14.1503 4.90633C14.5306 5.20672 14.7942 5.63028 14.8959 6.10409C14.9792 6.67354 15.0834 7.23604 15.2084 7.79159C15.449 8.88981 15.7693 9.96905 16.1667 11.0208L13.25 12.3749C13.0006 12.4893 12.7763 12.6519 12.5899 12.8533C12.4036 13.0546 12.2588 13.2908 12.1639 13.5483C12.0691 13.8057 12.026 14.0794 12.0372 14.3535C12.0484 14.6277 12.1137 14.8969 12.2292 15.1458C15.2275 21.5682 20.3901 26.7308 26.8125 29.7291C27.3197 29.9375 27.8886 29.9375 28.3959 29.7291C28.6557 29.6362 28.8944 29.4925 29.0983 29.3066C29.3022 29.1206 29.467 28.896 29.5834 28.6458L30.875 25.7291C31.952 26.1143 33.0512 26.4343 34.1667 26.6874C34.7222 26.8124 35.2847 26.9166 35.8542 26.9999C36.328 27.1016 36.7516 27.3652 37.052 27.7455C37.3524 28.1257 37.5108 28.5988 37.5 29.0833L37.5417 35.5833Z" fill="#5A58F5"/>
</svg>
