<svg width="37" height="37" viewBox="0 0 37 37" fill="none" xmlns="http://www.w3.org/2000/svg">
<path d="M19.5086 35.7022C19.1892 36.012 18.7852 36.2201 18.3475 36.3004C17.9099 36.3806 17.4583 36.3292 17.0498 36.1528C16.6414 35.9764 16.2944 35.6828 16.0527 35.3092C15.811 34.9357 15.6856 34.4988 15.6922 34.0539L16.168 2.23767C16.1823 1.6447 16.4301 1.08134 16.8576 0.670176C17.2851 0.259012 17.8577 0.0333129 18.4508 0.0421831C19.0438 0.0510532 19.6094 0.293774 20.0244 0.717539C20.4395 1.1413 20.6703 1.71182 20.6668 2.30495L20.191 34.1212C20.187 34.4167 20.1247 34.7085 20.0076 34.9798C19.8905 35.2511 19.7209 35.4966 19.5086 35.7022Z" fill="#6563FF"/>
<path d="M35.6546 20.032C35.4428 20.238 35.1924 20.4002 34.9177 20.5091C34.643 20.618 34.3494 20.6716 34.054 20.6668L2.23773 20.1909C1.64476 20.1767 1.0814 19.9288 0.670239 19.5013C0.259075 19.0738 0.0333739 18.5012 0.0422441 17.9082C0.0511142 17.3151 0.293838 16.7495 0.717603 16.3345C1.14137 15.9195 1.71188 15.6886 2.30501 15.6921L34.1213 16.1679C34.5661 16.1747 34.9991 16.3131 35.3653 16.5659C35.7315 16.8186 36.0145 17.1742 36.1786 17.5878C36.3427 18.0013 36.3806 18.4543 36.2873 18.8893C36.194 19.3244 35.9739 19.722 35.6546 20.032Z" fill="#6563FF"/>
</svg>
