<svg width="183" height="184" viewBox="0 0 183 184" fill="none" xmlns="http://www.w3.org/2000/svg">
<path d="M174.142 136.275L155.167 116.842C151.085 112.962 145.937 110.391 140.383 109.46C134.829 108.529 129.124 109.28 124 111.617L115.75 103.367C125.472 90.3767 129.912 74.1862 128.176 58.0543C126.44 41.9224 118.657 27.047 106.395 16.4226C94.1321 5.79822 78.2999 0.213723 62.0853 0.793309C45.8706 1.37289 30.4775 8.07353 19.0047 19.5463C7.53191 31.0191 0.831269 46.4122 0.251683 62.6269C-0.327903 78.8415 5.2566 94.6737 15.881 106.936C26.5054 119.199 41.3808 126.982 57.5127 128.717C73.6445 130.453 89.8351 126.013 102.825 116.292L110.983 124.45C108.372 129.58 107.436 135.4 108.307 141.09C109.179 146.78 111.814 152.054 115.842 156.167L135.275 175.6C140.431 180.75 147.421 183.642 154.708 183.642C161.996 183.642 168.985 180.75 174.142 175.6C176.761 173.039 178.842 169.98 180.263 166.604C181.684 163.227 182.416 159.601 182.416 155.937C182.416 152.274 181.684 148.648 180.263 145.271C178.842 141.895 176.761 138.836 174.142 136.275ZM96.4083 97.4083C89.9938 103.807 81.8269 108.16 72.9393 109.919C64.0517 111.679 54.842 110.764 46.4738 107.292C38.1056 103.819 30.9543 97.9446 25.9232 90.4099C20.8921 82.8751 18.2069 74.0183 18.2069 64.9583C18.2069 55.8982 20.8921 47.0414 25.9232 39.5067C30.9543 31.972 38.1056 26.0973 46.4738 22.6249C54.842 19.1525 64.0517 18.2381 72.9393 19.9972C81.8269 21.7563 89.9938 26.11 96.4083 32.5083C100.677 36.7658 104.063 41.8236 106.374 47.3919C108.684 52.9602 109.874 58.9296 109.874 64.9583C109.874 70.987 108.684 76.9564 106.374 82.5247C104.063 88.093 100.677 93.1508 96.4083 97.4083ZM161.217 162.217C160.364 163.076 159.351 163.758 158.234 164.223C157.117 164.688 155.918 164.928 154.708 164.928C153.498 164.928 152.3 164.688 151.183 164.223C150.066 163.758 149.052 163.076 148.2 162.217L128.767 142.783C127.908 141.931 127.226 140.917 126.76 139.8C126.295 138.683 126.055 137.485 126.055 136.275C126.055 135.065 126.295 133.867 126.76 132.75C127.226 131.633 127.908 130.619 128.767 129.767C129.619 128.907 130.633 128.226 131.75 127.76C132.867 127.295 134.065 127.055 135.275 127.055C136.485 127.055 137.683 127.295 138.8 127.76C139.917 128.226 140.931 128.907 141.783 129.767L161.217 149.2C162.076 150.052 162.758 151.066 163.223 152.183C163.689 153.3 163.928 154.498 163.928 155.708C163.928 156.918 163.689 158.117 163.223 159.234C162.758 160.351 162.076 161.364 161.217 162.217Z" fill="#6563FF"/>
</svg>
