<svg width="184" height="184" viewBox="0 0 184 184" fill="none" xmlns="http://www.w3.org/2000/svg">
<path d="M177.433 69.5416L160.108 63.7666L168.267 47.45C169.094 45.7421 169.37 43.8196 169.058 41.9479C168.746 40.0761 167.861 38.3473 166.525 37L147 17.4749C145.646 16.1191 143.9 15.2218 142.009 14.9094C140.118 14.597 138.177 14.8851 136.458 15.7333L120.142 23.8916L114.367 6.56662C113.757 4.76071 112.599 3.18985 111.055 2.07264C109.51 0.955428 107.656 0.347439 105.75 0.333283H78.25C76.3283 0.328322 74.4536 0.927456 72.8909 2.046C71.3282 3.16454 70.1566 4.74592 69.5417 6.56662L63.7667 23.8916L47.45 15.7333C45.7421 14.9063 43.8197 14.6297 41.9479 14.9416C40.0762 15.2536 38.3473 16.1387 37 17.4749L17.475 37C16.1191 38.3545 15.2219 40.0999 14.9095 41.9908C14.5971 43.8817 14.8852 45.823 15.7333 47.5416L23.8917 63.8583L6.56668 69.6333C4.76077 70.2432 3.18991 71.4009 2.0727 72.9453C0.955489 74.4896 0.3475 76.3439 0.333344 78.2499V105.75C0.328383 107.672 0.927517 109.546 2.04606 111.109C3.16461 112.672 4.74598 113.843 6.56668 114.458L23.8917 120.233L15.7333 136.55C14.9063 138.258 14.6297 140.18 14.9417 142.052C15.2536 143.924 16.1388 145.653 17.475 147L37 166.525C38.3545 167.881 40.0999 168.778 41.9909 169.09C43.8818 169.403 45.823 169.115 47.5417 168.267L63.8583 160.108L69.6333 177.433C70.2483 179.254 71.4199 180.835 72.9826 181.954C74.5453 183.072 76.4199 183.672 78.3417 183.667H105.842C107.763 183.672 109.638 183.072 111.201 181.954C112.763 180.835 113.935 179.254 114.55 177.433L120.325 160.108L136.642 168.267C138.339 169.073 140.242 169.338 142.095 169.027C143.948 168.715 145.66 167.842 147 166.525L166.525 147C167.881 145.645 168.778 143.9 169.091 142.009C169.403 140.118 169.115 138.177 168.267 136.458L160.108 120.142L177.433 114.367C179.239 113.757 180.81 112.599 181.927 111.055C183.045 109.51 183.653 107.656 183.667 105.75V78.2499C183.672 76.3282 183.073 74.4535 181.954 72.8909C180.835 71.3282 179.254 70.1566 177.433 69.5416ZM165.333 99.1499L154.333 102.817C151.804 103.637 149.483 104.998 147.532 106.805C145.581 108.612 144.047 110.822 143.035 113.281C142.023 115.74 141.559 118.39 141.674 121.047C141.789 123.704 142.48 126.304 143.7 128.667L148.925 139.117L138.842 149.2L128.667 143.7C126.316 142.529 123.741 141.876 121.116 141.787C118.491 141.697 115.878 142.173 113.453 143.181C111.028 144.189 108.848 145.707 107.06 147.631C105.272 149.555 103.919 151.841 103.092 154.333L99.425 165.333H84.85L81.1833 154.333C80.3629 151.804 79.0019 149.483 77.1949 147.532C75.3879 145.581 73.1782 144.047 70.7189 143.035C68.2596 142.023 65.6097 141.559 62.9529 141.674C60.2962 141.789 57.6962 142.48 55.3333 143.7L44.8833 148.925L34.8 138.842L40.3 128.667C41.52 126.304 42.2114 123.704 42.3263 121.047C42.4411 118.39 41.9766 115.74 40.9649 113.281C39.9533 110.822 38.4188 108.612 36.4678 106.805C34.5169 104.998 32.1962 103.637 29.6667 102.817L18.6667 99.1499V84.85L29.6667 81.1833C32.1962 80.3628 34.5169 79.0018 36.4678 77.1949C38.4188 75.3879 39.9533 73.1781 40.9649 70.7188C41.9766 68.2595 42.4411 65.6096 42.3263 62.9528C42.2114 60.2961 41.52 57.6961 40.3 55.3333L35.075 45.1583L45.1583 35.075L55.3333 40.3C57.6962 41.52 60.2962 42.2114 62.9529 42.3262C65.6097 42.441 68.2596 41.9765 70.7189 40.9649C73.1782 39.9533 75.3879 38.4187 77.1949 36.4678C79.0019 34.5168 80.3629 32.1961 81.1833 29.6666L84.85 18.6666H99.15L102.817 29.6666C103.637 32.1961 104.998 34.5168 106.805 36.4678C108.612 38.4187 110.822 39.9533 113.281 40.9649C115.74 41.9765 118.39 42.441 121.047 42.3262C123.704 42.2114 126.304 41.52 128.667 40.3L139.117 35.075L149.2 45.1583L143.7 55.3333C142.529 57.684 141.876 60.259 141.787 62.8838C141.697 65.5086 142.173 68.122 143.181 70.547C144.189 72.9721 145.707 75.1522 147.631 76.9398C149.555 78.7275 151.841 80.0808 154.333 80.9083L165.333 84.5749V99.1499ZM92 55.3333C84.748 55.3333 77.6589 57.4837 71.6291 61.5127C65.5993 65.5417 60.8996 71.2683 58.1244 77.9682C55.3492 84.6682 54.6231 92.0406 56.0379 99.1533C57.4527 106.266 60.9448 112.799 66.0728 117.927C71.2007 123.055 77.7341 126.547 84.8467 127.962C91.9593 129.377 99.3318 128.651 106.032 125.876C112.732 123.1 118.458 118.401 122.487 112.371C126.516 106.341 128.667 99.2519 128.667 91.9999C128.667 82.2753 124.804 72.949 117.927 66.0727C111.051 59.1964 101.725 55.3333 92 55.3333ZM92 110.333C88.374 110.333 84.8295 109.258 81.8146 107.244C78.7997 105.229 76.4498 102.366 75.0622 99.0158C73.6746 95.6658 73.3115 91.9796 74.0189 88.4233C74.7263 84.867 76.4724 81.6003 79.0364 79.0363C81.6003 76.4724 84.867 74.7263 88.4234 74.0189C91.9797 73.3115 95.6659 73.6746 99.0159 75.0622C102.366 76.4498 105.229 78.7996 107.244 81.8145C109.258 84.8294 110.333 88.374 110.333 91.9999C110.333 96.8622 108.402 101.525 104.964 104.964C101.525 108.402 96.8623 110.333 92 110.333Z" fill="#6563FF"/>
</svg>
